<svg width="16" height="16" viewBox="0 0 16 16" fill="none" xmlns="http://www.w3.org/2000/svg">
<g clip-path="url(#clip0_46_505)">
<path d="M8.00703 16.008C3.68552 16.003 -0.00601146 12.5723 7.34962e-06 8.01204C0.00602616 3.46483 3.53505 -0.00501024 8.00502 5.43069e-06C12.4991 0.00602424 16.001 3.48891 16 8.02207C16 12.5723 12.3235 15.993 8.00703 16.008ZM7.99699 0.983076C4.0627 1.00815 0.995116 4.08076 0.980069 7.98395C0.965021 11.9624 4.22421 15.031 7.98797 15.036C11.7688 15.04 15.0219 11.9724 15.0179 8.00602C15.0139 4.08076 11.9293 1.00514 7.99699 0.983076Z" fill="black"/>
<path d="M7.50746 4.0306C7.50746 3.94734 7.50345 3.86307 7.50746 3.77981C7.52351 3.47486 7.7111 3.27223 7.98295 3.2632C8.23674 3.25417 8.46245 3.46884 8.48652 3.75875C8.49956 3.91624 8.49756 4.07674 8.48953 4.23423C8.4805 4.40978 8.55072 4.47198 8.72828 4.50809C9.13354 4.59035 9.54282 4.68063 9.92803 4.82508C10.2159 4.93241 10.2892 5.21229 10.1718 5.46508C10.0584 5.70984 9.83373 5.7901 9.5358 5.69279C8.92589 5.49317 8.30295 5.39988 7.66295 5.48615C7.30884 5.5343 6.98483 5.6647 6.719 5.91047C6.39298 6.21342 6.41906 6.69392 6.80828 6.90558C7.17743 7.10721 7.57568 7.27173 7.97894 7.3921C8.58684 7.57267 9.20477 7.7121 9.7585 8.04013C10.4466 8.4474 10.8048 9.0222 10.7115 9.84276C10.6372 10.4878 10.0554 11.1388 9.35624 11.3384C9.16464 11.3926 8.96702 11.4307 8.76941 11.4588C8.57681 11.4859 8.46245 11.5541 8.48853 11.7768C8.50558 11.9253 8.50057 12.0777 8.48853 12.2272C8.46044 12.5673 8.27085 12.7408 7.95787 12.7278C7.67599 12.7157 7.5205 12.5372 7.50947 12.2041C7.50445 12.0376 7.49242 11.8681 7.51248 11.7036C7.53856 11.4869 7.43524 11.4217 7.24565 11.3715C6.77116 11.2451 6.29869 11.1077 5.83624 10.9442C5.55637 10.8449 5.47612 10.6503 5.53731 10.3905C5.59148 10.1587 5.76101 10.0163 6.0479 10.0594C6.38295 10.1096 6.70997 10.2169 7.03599 10.3162C7.72815 10.5289 8.42132 10.6312 9.1215 10.3644C9.38533 10.2641 9.62107 10.1236 9.70332 9.8247C9.8237 9.38734 9.69129 9.0563 9.25893 8.88878C8.59185 8.63097 7.90069 8.43436 7.2326 8.17956C6.70696 7.97893 6.18232 7.78433 5.80815 7.30082C5.36477 6.72602 5.46107 6.03988 5.78809 5.49919C6.08101 5.01467 6.53242 4.74884 7.06508 4.59937C7.36067 4.51645 7.50847 4.32619 7.50847 4.02859L7.50746 4.0306Z" fill="black"/>
</g>
<defs>
<clipPath id="clip0_46_505">
<rect width="16" height="16" fill="white"/>
</clipPath>
</defs>
</svg>
