<svg width="24" height="24" viewBox="0 0 24 24" fill="none" xmlns="http://www.w3.org/2000/svg">
<g clip-path="url(#clip0_3015_323)">
<path d="M12 0.375C5.57812 0.375 0.375 5.57812 0.375 12C0.375 18.4219 5.57812 23.625 12 23.625C18.4219 23.625 23.625 18.4219 23.625 12C23.625 5.57812 18.4219 0.375 12 0.375ZM22.125 12C22.125 17.5641 17.6203 22.125 12 22.125C6.43594 22.125 1.875 17.6203 1.875 12C1.875 6.43594 6.37969 1.875 12 1.875C17.5641 1.875 22.125 6.37969 22.125 12ZM15.1453 16.1391L11.3391 13.3734C11.1937 13.2656 11.1094 13.0969 11.1094 12.9188V5.4375C11.1094 5.12813 11.3625 4.875 11.6719 4.875H12.3281C12.6375 4.875 12.8906 5.12813 12.8906 5.4375V12.2953L16.1953 14.7C16.4484 14.8828 16.5 15.2344 16.3172 15.4875L15.9328 16.0172C15.75 16.2656 15.3984 16.3219 15.1453 16.1391Z" fill="#45A874"/>
</g>
<defs>
<clipPath id="clip0_3015_323">
<rect width="24" height="24" fill="white"/>
</clipPath>
</defs>
</svg>
