<svg width="24" height="24" viewBox="0 0 24 24" fill="none" xmlns="http://www.w3.org/2000/svg">
<g clip-path="url(#clip0_3015_1056)">
<path d="M12.0105 24.012C5.52829 24.0045 -0.00901718 18.8584 1.10244e-05 12.018C0.00903923 5.19719 5.30258 -0.0075764 12.0075 -5.28891e-05C18.7486 0.00897532 24.0015 5.2333 24 12.033C24 18.8584 18.4853 23.9894 12.0105 24.012ZM11.9955 1.47455C6.09405 1.51217 1.49267 6.12107 1.4701 11.9759C1.44753 17.9435 6.33631 22.5464 11.982 22.5539C17.6532 22.5599 22.5329 17.9586 22.5269 12.009C22.5209 6.12107 17.8939 1.50766 11.9955 1.47455Z" fill="#45A874"/>
<path d="M11.2612 6.04584C11.2612 5.92095 11.2552 5.79455 11.2612 5.66966C11.2853 5.21223 11.5666 4.90828 11.9744 4.89474C12.3551 4.8812 12.6937 5.2032 12.7298 5.63806C12.7493 5.8743 12.7463 6.11505 12.7343 6.35129C12.7208 6.61461 12.8261 6.70791 13.0924 6.76208C13.7003 6.88546 14.3142 7.02088 14.892 7.23756C15.3239 7.39856 15.4337 7.81837 15.2577 8.19756C15.0876 8.5647 14.7506 8.68508 14.3037 8.53913C13.3888 8.23969 12.4544 8.09976 11.4944 8.22916C10.9633 8.30139 10.4772 8.49699 10.0785 8.86565C9.58947 9.32007 9.62859 10.0408 10.2124 10.3583C10.7661 10.6608 11.3635 10.9075 11.9684 11.0881C12.8803 11.3589 13.8071 11.5681 14.6377 12.0601C15.67 12.671 16.2072 13.5332 16.0672 14.7641C15.9559 15.7316 15.0831 16.7082 14.0344 17.0076C13.747 17.0888 13.4505 17.146 13.1541 17.1882C12.8652 17.2288 12.6937 17.3311 12.7328 17.6651C12.7584 17.8878 12.7508 18.1166 12.7328 18.3408C12.6907 18.8508 12.4063 19.1112 11.9368 19.0916C11.514 19.0735 11.2808 18.8057 11.2642 18.3061C11.2567 18.0564 11.2386 17.8021 11.2687 17.5553C11.3078 17.2303 11.1529 17.1325 10.8685 17.0572C10.1567 16.8676 9.44803 16.6615 8.75436 16.4162C8.33455 16.2673 8.21418 15.9754 8.30596 15.5856C8.38722 15.2381 8.64151 15.0244 9.07186 15.0891C9.57443 15.1643 10.065 15.3253 10.554 15.4743C11.5922 15.7933 12.632 15.9468 13.6823 15.5465C14.078 15.396 14.4316 15.1854 14.555 14.737C14.7356 14.0809 14.5369 13.5844 13.8884 13.3331C12.8878 12.9464 11.851 12.6515 10.8489 12.2693C10.0604 11.9683 9.27348 11.6764 8.71223 10.9512C8.04715 10.089 8.19161 9.05975 8.68214 8.24872C9.12151 7.52195 9.79862 7.1232 10.5976 6.899C11.041 6.77461 11.2627 6.48922 11.2627 6.04283L11.2612 6.04584Z" fill="#45A874"/>
</g>
<defs>
<clipPath id="clip0_3015_1056">
<rect width="24" height="24" fill="white"/>
</clipPath>
</defs>
</svg>
