<svg width="26" height="26" viewBox="0 0 26 26" fill="none" xmlns="http://www.w3.org/2000/svg">
<path d="M19.5244 18.5164C16.1671 21.8737 10.7238 21.8737 7.36649 18.5164C4.00917 15.1591 4.00917 9.71576 7.36649 6.35844C10.7238 3.00111 16.1671 3.00111 19.5244 6.35844C22.8818 9.71576 22.8818 15.1591 19.5244 18.5164ZM9.1139 8.10584C6.72164 10.4981 6.72164 14.3767 9.1139 16.769C11.5062 19.1612 15.3848 19.1612 17.777 16.769C20.1693 14.3767 20.1693 10.4981 17.777 8.10584C15.3848 5.71359 11.5062 5.71359 9.1139 8.10584Z" fill="url(#paint0_linear_3015_440)"/>
<path d="M0.952424 9.56795C0.322036 8.93756 0.322037 7.9155 0.952425 7.28511L7.76475 0.472791C8.39514 -0.157597 9.4172 -0.157597 10.0476 0.472791C10.678 1.10318 10.678 2.12524 10.0476 2.75563L3.23526 9.56795C2.60487 10.1983 1.58281 10.1983 0.952424 9.56795Z" fill="url(#paint1_linear_3015_440)"/>
<path d="M16.4322 25.0478C15.8018 24.4174 15.8018 23.3953 16.4322 22.7649L23.2446 15.9526C23.8749 15.3222 24.897 15.3222 25.5274 15.9526C26.1578 16.583 26.1578 17.605 25.5274 18.2354L18.7151 25.0478C18.0847 25.6781 17.0626 25.6781 16.4322 25.0478Z" fill="url(#paint2_linear_3015_440)"/>
<path d="M0.54739 25.4526C-0.182464 24.7228 -0.182463 23.5394 0.54739 22.8096L4.24763 19.1093C4.97749 18.3795 6.16081 18.3795 6.89067 19.1093C7.62052 19.8392 7.62052 21.0225 6.89067 21.7524L3.19042 25.4526C2.46057 26.1825 1.27724 26.1825 0.54739 25.4526Z" fill="url(#paint3_linear_3015_440)"/>
<defs>
<linearGradient id="paint0_linear_3015_440" x1="-14.1819" y1="1.5" x2="24.8286" y2="26.4669" gradientUnits="userSpaceOnUse">
<stop stop-color="#6AB990"/>
<stop offset="0.989799" stop-color="#6AB990" stop-opacity="0.2"/>
</linearGradient>
<linearGradient id="paint1_linear_3015_440" x1="-14.1819" y1="1.5" x2="24.8286" y2="26.4669" gradientUnits="userSpaceOnUse">
<stop stop-color="#6AB990"/>
<stop offset="0.989799" stop-color="#6AB990" stop-opacity="0.2"/>
</linearGradient>
<linearGradient id="paint2_linear_3015_440" x1="-14.1819" y1="1.5" x2="24.8286" y2="26.4669" gradientUnits="userSpaceOnUse">
<stop stop-color="#6AB990"/>
<stop offset="0.989799" stop-color="#6AB990" stop-opacity="0.2"/>
</linearGradient>
<linearGradient id="paint3_linear_3015_440" x1="-14.1819" y1="1.5" x2="24.8286" y2="26.4669" gradientUnits="userSpaceOnUse">
<stop stop-color="#6AB990"/>
<stop offset="0.989799" stop-color="#6AB990" stop-opacity="0.2"/>
</linearGradient>
</defs>
</svg>
