<svg width="40" height="40" viewBox="0 0 40 40" fill="none" xmlns="http://www.w3.org/2000/svg">
<path d="M30.0376 28.4867C24.8725 33.6519 16.4982 33.6519 11.3331 28.4867C6.16795 23.3216 6.16795 14.9473 11.3331 9.78221C16.4982 4.6171 24.8725 4.6171 30.0376 9.78221C35.2027 14.9473 35.2027 23.3216 30.0376 28.4867ZM14.0214 12.4705C10.341 16.1509 10.341 22.118 14.0214 25.7984C17.7018 29.4788 23.6689 29.4788 27.3493 25.7984C31.0297 22.118 31.0297 16.1509 27.3493 12.4705C23.6689 8.79013 17.7018 8.79013 14.0214 12.4705Z" fill="url(#paint0_linear_219_9195)"/>
<path d="M1.46527 14.7199C0.49544 13.7501 0.495441 12.1777 1.46527 11.2079L11.9458 0.727371C12.9156 -0.242457 14.488 -0.242457 15.4578 0.727371C16.4277 1.6972 16.4277 3.2696 15.4578 4.23943L4.97733 14.7199C4.0075 15.6898 2.4351 15.6898 1.46527 14.7199Z" fill="url(#paint1_linear_219_9195)"/>
<path d="M25.2804 38.535C24.3105 37.5652 24.3105 35.9928 25.2804 35.023L35.7609 24.5425C36.7307 23.5726 38.3031 23.5726 39.2729 24.5425C40.2427 25.5123 40.2427 27.0847 39.2729 28.0545L28.7924 38.535C27.8226 39.5048 26.2502 39.5048 25.2804 38.535Z" fill="url(#paint2_linear_219_9195)"/>
<path d="M0.842138 39.1579C-0.280713 38.035 -0.280712 36.2145 0.842139 35.0917L6.53482 29.399C7.65767 28.2761 9.47817 28.2761 10.601 29.399C11.7239 30.5218 11.7239 32.3423 10.601 33.4652L4.90834 39.1579C3.78549 40.2807 1.96499 40.2807 0.842138 39.1579Z" fill="url(#paint3_linear_219_9195)"/>
<defs>
<linearGradient id="paint0_linear_219_9195" x1="-21.8183" y1="2.30769" x2="38.1979" y2="40.7184" gradientUnits="userSpaceOnUse">
<stop stop-color="#6AB990"/>
<stop offset="0.989799" stop-color="#6AB990" stop-opacity="0.2"/>
</linearGradient>
<linearGradient id="paint1_linear_219_9195" x1="-21.8183" y1="2.30769" x2="38.1979" y2="40.7184" gradientUnits="userSpaceOnUse">
<stop stop-color="#6AB990"/>
<stop offset="0.989799" stop-color="#6AB990" stop-opacity="0.2"/>
</linearGradient>
<linearGradient id="paint2_linear_219_9195" x1="-21.8183" y1="2.30769" x2="38.1979" y2="40.7184" gradientUnits="userSpaceOnUse">
<stop stop-color="#6AB990"/>
<stop offset="0.989799" stop-color="#6AB990" stop-opacity="0.2"/>
</linearGradient>
<linearGradient id="paint3_linear_219_9195" x1="-21.8183" y1="2.30769" x2="38.1979" y2="40.7184" gradientUnits="userSpaceOnUse">
<stop stop-color="#6AB990"/>
<stop offset="0.989799" stop-color="#6AB990" stop-opacity="0.2"/>
</linearGradient>
</defs>
</svg>
