<svg width="24" height="24" viewBox="0 0 24 24" fill="none" xmlns="http://www.w3.org/2000/svg">
<path d="M14.26 8.21105C14.26 7.52988 14.248 6.90573 14.263 6.28158C14.281 5.58391 14.5421 5.01977 15.2067 4.7002C15.8234 4.40312 16.7176 4.40462 17.4738 5.1323C18.8526 6.45712 20.2539 7.75794 21.6463 9.06925C22.2104 9.60038 22.7821 10.124 23.3417 10.6596C24.2254 11.5043 24.2164 12.4601 23.3327 13.2928C21.3687 15.1442 19.4062 16.9987 17.4438 18.8516C16.8871 19.3768 16.254 19.6303 15.4963 19.3633C14.7011 19.0842 14.2915 18.5245 14.263 17.6723C14.245 17.1352 14.2435 16.5966 14.263 16.0595C14.2735 15.7714 14.1655 15.6994 13.8939 15.7009C12.5061 15.7114 11.1182 15.7084 9.73039 15.7054C9.06423 15.7039 8.44458 15.5943 7.97047 15.0452C7.67489 14.7031 7.52936 14.3265 7.52936 13.8854C7.52636 12.6221 7.51285 11.3603 7.53086 10.097C7.54736 9.02574 8.34706 8.24556 9.42432 8.23655C10.8872 8.22455 12.35 8.23355 13.8129 8.23205C13.9464 8.23205 14.0814 8.22155 14.26 8.21255V8.21105ZM12.257 9.69791C11.3703 9.69791 10.4836 9.69491 9.59686 9.69791C9.13475 9.69941 9.00122 9.83594 8.99972 10.3056C8.99672 11.4053 8.99672 12.5036 8.99972 13.6034C8.99972 14.1 9.12425 14.223 9.62087 14.2245C10.7581 14.2275 11.8939 14.2245 13.0312 14.2245C13.6433 14.2245 14.257 14.2095 14.8661 14.2425C15.5173 14.2785 15.7243 14.5201 15.7273 15.1667C15.7303 15.9034 15.7123 16.6416 15.7394 17.3768C15.7469 17.5613 15.8624 17.7714 15.9959 17.9019C16.0409 17.9454 16.326 17.8119 16.446 17.7008C18.3875 15.9004 20.32 14.0925 22.2524 12.283C22.5855 11.971 22.5825 11.947 22.2569 11.6424C20.9891 10.4571 19.7198 9.2733 18.452 8.08952C17.7678 7.45036 17.0882 6.80671 16.392 6.17805C16.2885 6.08503 16.0694 5.98751 15.9839 6.03402C15.8609 6.10304 15.7964 6.29658 15.7364 6.44962C15.7018 6.53664 15.7273 6.64767 15.7273 6.74669C15.7273 7.43386 15.7318 8.12103 15.7273 8.80819C15.7213 9.45485 15.4813 9.69341 14.8436 9.69491C13.9824 9.69641 13.1197 9.69491 12.2585 9.69491L12.257 9.69791Z" fill="#45A874"/>
<path d="M0.00953546 11.9349C0.00953546 9.73542 0.000533091 7.53438 0.0140364 5.33485C0.0215382 4.12555 0.431138 3.0723 1.39887 2.30861C1.99602 1.8375 2.69069 1.54643 3.46788 1.53593C5.01625 1.51492 6.56613 1.48941 8.1145 1.50442C8.79867 1.51192 9.10174 1.93502 8.9232 2.49166C8.81067 2.84124 8.5391 2.93427 8.22253 2.93727C7.09725 2.94927 5.97348 2.94627 4.84821 2.95977C4.37409 2.96427 3.89548 2.95677 3.42887 3.01829C2.30209 3.16982 1.5324 4.05204 1.48739 5.19231C1.48439 5.27933 1.48289 5.36786 1.48289 5.45488C1.48289 9.79243 1.48289 14.13 1.48289 18.4675C1.48289 19.4233 1.80097 20.226 2.68919 20.6686C3.05527 20.8516 3.49638 20.9521 3.90748 20.9626C5.29382 20.9986 6.68315 20.9611 8.06949 20.9911C8.32755 20.9972 8.65913 21.1172 8.82117 21.3032C9.20527 21.7413 8.87368 22.403 8.27804 22.451C8.01698 22.472 7.75291 22.4585 7.49035 22.4585C6.27806 22.4585 5.06426 22.4915 3.85347 22.451C2.3231 22.4 1.06879 21.7938 0.414633 20.3445C0.161072 19.7819 0.0395428 19.1187 0.0260396 18.4975C-0.0189714 16.3115 0.00803478 14.1225 0.00803478 11.9349H0.00953546Z" fill="#45A874"/>
</svg>
