<svg width="204" height="40" viewBox="0 0 204 40" fill="none" xmlns="http://www.w3.org/2000/svg">
<g clip-path="url(#clip0_664_89787)">
<path d="M203.579 25.4564C203.86 25.7438 204 26.0887 204 26.4911C204 26.8935 203.86 27.2384 203.577 27.5258C203.294 27.8132 202.951 27.9558 202.544 27.9558C202.138 27.9558 201.799 27.8132 201.517 27.5258C201.234 27.2384 201.094 26.8935 201.094 26.4911C201.094 26.0887 201.236 25.7484 201.519 25.4587C201.802 25.1712 202.147 25.0264 202.549 25.0264C202.951 25.0264 203.299 25.1689 203.579 25.4564ZM203.303 27.2545C203.51 27.0429 203.611 26.79 203.611 26.4911C203.611 26.1922 203.51 25.9369 203.306 25.73C203.101 25.5207 202.85 25.4173 202.551 25.4173C202.252 25.4173 201.997 25.523 201.793 25.7346C201.588 25.9461 201.487 26.2014 201.487 26.5003C201.487 26.7992 201.588 27.0498 201.793 27.2568C201.997 27.4637 202.248 27.5695 202.547 27.5695C202.846 27.5695 203.099 27.4637 203.303 27.2545ZM202.848 26.6957L203.195 27.2223H202.802L202.496 26.7417H202.358V27.2223H202.029V25.7392H202.602C202.777 25.7392 202.905 25.7852 202.993 25.8794C203.08 25.9714 203.124 26.0956 203.124 26.2473C203.124 26.4704 203.032 26.6198 202.85 26.6957H202.848ZM202.363 26.4405H202.524C202.602 26.4405 202.664 26.4221 202.708 26.3876C202.751 26.3531 202.772 26.3048 202.772 26.2427C202.772 26.1807 202.751 26.137 202.71 26.1002C202.669 26.0634 202.611 26.045 202.533 26.045H202.363V26.4382V26.4405Z" fill="white"/>
<path d="M62.816 28.2731C60.4339 28.2731 59.0358 27.0337 58.3368 25.415H57.9873V34.1181H54.5566V12.0418H58.0816V14.3918H58.4311C59.1623 12.8673 60.5281 11.7245 62.8781 11.7245H62.9724C66.3709 11.7245 68.53 14.4883 68.53 19.1561V20.9358C68.53 25.6357 66.4651 28.2731 62.8758 28.2731H62.8114H62.816ZM61.7353 25.0011C63.9588 25.0011 65.0395 23.5088 65.0395 20.7128V19.2825C65.0395 16.4865 63.9588 14.9942 61.7353 14.9942H61.6088C59.2911 14.9942 58.0839 16.5187 58.0839 19.2825V20.7128C58.0839 23.5387 59.2911 25.0011 61.6088 25.0011H61.7353Z" fill="white"/>
<path d="M82.1107 15.1851C78.7766 15.1851 78.0454 17.0591 78.0454 18.9331V24.8401H83.1914V27.9536H71.3105V24.8401H74.7044V15.1851H71.3105V12.0396H77.7579L78.0431 14.8356H78.4249C79.0917 12.9616 80.2988 12.0396 82.6165 12.0396H85.3528V15.1851H82.1084H82.1107Z" fill="white"/>
<path d="M101.491 20.9358H90.9467C90.9099 20.9358 91.0203 22.1361 91.0387 22.2533C91.0939 22.6143 91.179 22.9708 91.3146 23.3111C91.5331 23.8583 91.8872 24.3435 92.3907 24.6585C93.2116 25.1736 94.2624 25.2425 95.2006 25.1207C96.0145 25.0149 96.817 24.716 97.3712 24.086C97.4838 23.9595 97.5827 23.8215 97.6678 23.6767C97.6954 23.6307 97.8862 23.1915 97.9023 23.1915H101.333C101.333 23.1915 100.988 24.2722 100.944 24.378C100.79 24.7436 100.604 25.0931 100.388 25.4242C99.9764 26.0496 99.4521 26.5946 98.8405 27.0269C97.1941 28.1857 95.0005 28.4755 93.0438 28.1581C92.0435 27.9949 91.0663 27.6454 90.2293 27.0636C89.0658 26.252 88.2794 25.0333 87.8816 23.6813C87.6172 22.7822 87.5137 21.8418 87.5137 20.9059V19.1262C87.5137 17.9029 87.6908 16.6613 88.1737 15.53C88.576 14.5872 89.1946 13.7456 90.0063 13.1133C90.8133 12.4879 91.7745 12.0901 92.7701 11.8923C94.405 11.5658 96.2054 11.6808 97.7391 12.3637C97.7552 12.3706 97.769 12.3775 97.7851 12.3844C98.7002 12.8006 99.505 13.4352 100.103 14.2469C100.769 15.1483 101.16 16.2244 101.347 17.3235C101.448 17.919 101.491 18.5238 101.491 19.1285V20.9381V20.9358ZM94.536 14.87C92.4091 14.87 91.1376 15.7599 90.9789 18.4594H98.0633C97.9046 15.7599 96.6032 14.87 94.474 14.87H94.536Z" fill="white"/>
<path d="M109.924 28.2732C106.335 28.2732 104.27 25.6358 104.27 20.9359V19.1561C104.27 14.4861 106.429 11.7245 109.828 11.7245H109.922C112.272 11.7245 113.638 12.8673 114.369 14.3918H114.719V5.87952H118.244V27.9559H114.813V25.415H114.463C113.764 27.0361 112.366 28.2732 109.984 28.2732H109.92H109.924ZM111.196 25.0012C113.514 25.0012 114.721 23.541 114.721 20.7128V19.2826C114.721 16.5187 113.514 14.9943 111.196 14.9943H111.069C108.846 14.9943 107.765 16.4866 107.765 19.2826V20.7128C107.765 23.5089 108.846 25.0012 111.069 25.0012H111.196Z" fill="white"/>
<path d="M143.593 28.2731C139.463 28.2731 136.541 25.8587 136.541 20.9036V19.1239C136.541 14.1687 139.463 11.7222 143.593 11.7222H143.784C147.564 11.7222 150.36 13.7548 150.581 17.8201H147.15C146.959 15.5966 145.752 14.8654 143.784 14.8654H143.593C141.275 14.8654 139.972 15.8817 139.972 19.1216V20.9013C139.972 24.1089 141.273 25.1574 143.593 25.1574H143.784C145.722 25.1574 146.959 24.3963 147.15 22.2027H150.581C150.358 26.268 147.532 28.2685 143.784 28.2685H143.593V28.2731Z" fill="white"/>
<path d="M166.412 15.185H159.806V23.8238C159.806 24.5849 159.997 24.8401 160.855 24.8401H166.412V27.9535H160.822C157.964 27.9535 156.311 26.0795 156.311 23.4421V15.1827H152.436V12.0372H156.311V8.44785L159.806 8.16272V12.0372H166.412V15.1827V15.185Z" fill="white"/>
<path d="M182.858 12.0417V27.9557H179.333V25.6057H178.984C178.253 27.2567 176.443 28.273 174.281 28.273H174.155C171.009 28.273 168.883 26.0817 168.883 22.0785V12.0417H172.407V21.7934C172.407 24.0813 173.55 25.001 175.266 25.001H175.392C177.806 25.001 179.331 23.4765 179.331 21.1266V12.0417H182.856H182.858Z" fill="white"/>
<path d="M192.504 28.2731C188.089 28.2731 185.452 26.4313 185.326 22.6511H188.756C188.788 24.5895 189.646 25.415 192.472 25.415H192.566C194.884 25.415 195.9 24.716 195.9 23.4766C195.9 21.9521 194.185 21.6348 192.026 21.2209C189.039 20.6185 185.611 19.8551 185.611 16.4566C185.611 13.5341 187.899 11.7245 191.932 11.7245H192.026C196.314 11.7245 198.664 13.6307 198.823 17.2522H195.36C195.296 15.3782 194.438 14.5849 192.056 14.5849H191.962C189.674 14.5849 188.975 15.4104 188.975 16.3945C188.975 17.7925 190.626 18.1742 192.691 18.5536C195.707 19.1262 199.235 19.793 199.235 23.3823C199.235 26.3991 196.788 28.2731 192.596 28.2731H192.502H192.504Z" fill="white"/>
<path d="M134.691 24.8425V27.9558H130.483C127.625 27.9558 125.942 26.0819 125.942 23.4445V15.1851H120.717V12.0396H129.469V23.8238C129.469 24.5849 129.66 24.8401 130.485 24.8401H134.693L134.691 24.8425Z" fill="white"/>
<path d="M129.795 5.87952H125.645V9.84135H129.795V5.87952Z" fill="white"/>
<path d="M14.0916 0V13.3318H0.759766V33.3341H7.42566V40H14.1031C21.4496 40 27.428 34.0216 27.428 26.6751V26.6682H34.0939V20.0023H40.7598V0H14.0916ZM24.0916 22.7616C21.2542 21.7567 19.0054 19.5056 18.0005 16.6705H24.0916V22.7616ZM14.1031 36.6659H10.7621V30H4.09617V16.6705H14.5124C15.7195 21.3497 19.4124 25.0425 24.0916 26.2497V26.6774C24.0916 32.1844 19.6101 36.6659 14.1031 36.6659ZM37.4234 16.6659H30.7575V23.3318H27.428V13.3318H17.428V3.3364H37.4234V16.6659Z" fill="#45A874"/>
</g>
<defs>
<clipPath id="clip0_664_89787">
<rect width="204" height="40" fill="white"/>
</clipPath>
</defs>
</svg>
