<svg width="40" height="41" viewBox="0 0 40 41" fill="none" xmlns="http://www.w3.org/2000/svg">
<path d="M3.52065 16.6182C2.53626 16.5015 1.82388 15.6057 2.03828 14.6379C2.65708 11.8447 3.93689 9.23075 5.78093 7.02079C8.00954 4.34994 10.9662 2.38424 14.2914 1.36275C17.6166 0.341259 21.1669 0.308008 24.5106 1.26704C27.8543 2.22607 30.8473 4.13605 33.1255 6.76469C35.4038 9.39332 36.8691 12.6273 37.3433 16.0734C37.8175 19.5194 37.2801 23.029 35.7965 26.1753C34.3129 29.3216 31.947 31.969 28.9866 33.7955C26.537 35.3068 23.7678 36.2022 20.915 36.4178C19.9265 36.4925 19.1411 35.6601 19.1654 34.6691C19.1898 33.6781 20.0157 32.9061 21.002 32.8067C23.1577 32.5895 25.2446 31.8862 27.1017 30.7404C29.47 29.2792 31.3628 27.1613 32.5496 24.6443C33.7365 22.1273 34.1664 19.3196 33.7871 16.5627C33.4077 13.8059 32.2355 11.2187 30.4129 9.11578C28.5903 7.01287 26.1959 5.48488 23.5209 4.71766C20.8459 3.95043 18.0057 3.97703 15.3455 4.79422C12.6854 5.61141 10.3201 7.18398 8.53717 9.32066C7.1391 10.9961 6.14644 12.9619 5.62506 15.0649C5.38653 16.0271 4.50503 16.7349 3.52065 16.6182Z" fill="url(#paint0_linear_219_9378)"/>
<path d="M10.7277 16.5929C9.7958 16.3896 9.19239 15.4616 9.54188 14.5741C10.0764 13.2169 10.8834 11.9766 11.9195 10.9329C13.3631 9.47873 15.1916 8.4666 17.1903 8.01533C19.1891 7.56405 21.2751 7.69235 23.2034 8.38517C25.1318 9.07799 26.8225 10.3066 28.077 11.9267C29.3315 13.5468 30.0978 15.4912 30.2859 17.5316C30.474 19.5719 30.0761 21.6236 29.1389 23.4458C28.2017 25.2679 26.7641 26.7849 24.9949 27.8186C23.7251 28.5605 22.3223 29.0314 20.8745 29.2091C19.9277 29.3253 19.1803 28.5089 19.2167 27.5557C19.2532 26.6026 20.0651 25.8801 21.0003 25.6926C21.7893 25.5343 22.5508 25.2462 23.2524 24.8363C24.4542 24.1341 25.4307 23.1037 26.0673 21.866C26.7039 20.6282 26.9742 19.2346 26.8464 17.8486C26.7187 16.4627 26.1981 15.1419 25.346 14.0414C24.4938 12.9409 23.3454 12.1064 22.0355 11.6358C20.7257 11.1652 19.3087 11.078 17.9511 11.3846C16.5934 11.6911 15.3513 12.3786 14.3707 13.3664C13.7982 13.9431 13.3287 14.6082 12.978 15.3325C12.5624 16.191 11.6596 16.7962 10.7277 16.5929Z" fill="url(#paint1_linear_219_9378)"/>
<path d="M19.5621 40.5714C18.7125 40.5714 18.0237 39.8826 18.0237 39.033L18.0237 18.5201C18.0237 17.6705 18.7125 16.9817 19.5621 16.9817C20.4118 16.9817 21.1006 17.6705 21.1006 18.5201L21.1006 39.033C21.1006 39.8826 20.4118 40.5714 19.5621 40.5714Z" fill="#58B182"/>
<path d="M24.1775 18.5201C24.1775 21.0691 22.1111 23.1355 19.5621 23.1355C17.0131 23.1355 14.9468 21.0691 14.9468 18.5201C14.9468 15.9711 17.0131 13.9047 19.5621 13.9047C22.1111 13.9047 24.1775 15.9711 24.1775 18.5201Z" fill="#58B182"/>
<defs>
<linearGradient id="paint0_linear_219_9378" x1="0.985403" y1="14.2857" x2="25.986" y2="46.3351" gradientUnits="userSpaceOnUse">
<stop offset="0.0102014" stop-color="#6AB990" stop-opacity="0.2"/>
<stop offset="1" stop-color="#6AB990"/>
</linearGradient>
<linearGradient id="paint1_linear_219_9378" x1="0.985403" y1="14.2857" x2="30.0367" y2="41.0369" gradientUnits="userSpaceOnUse">
<stop offset="0.0102014" stop-color="#6AB990" stop-opacity="0.2"/>
<stop offset="1" stop-color="#6AB990"/>
</linearGradient>
</defs>
</svg>
