<svg width="24" height="26" viewBox="0 0 24 26" fill="none" xmlns="http://www.w3.org/2000/svg">
<path d="M0.98842 10.4304C0.34857 10.3545 -0.11448 9.77232 0.024883 9.14324C0.427102 7.32763 1.25898 5.62857 2.4576 4.19209C3.9062 2.45605 5.82805 1.17834 7.9894 0.514369C10.1508 -0.149599 12.4585 -0.171212 14.6319 0.452157C16.8053 1.07553 18.7507 2.31702 20.2316 4.02563C21.7125 5.73424 22.6649 7.83635 22.9731 10.0763C23.2814 12.3162 22.9321 14.5975 21.9677 16.6425C21.0034 18.6876 19.4656 20.4084 17.5413 21.5956C15.9491 22.578 14.1491 23.16 12.2947 23.3002C11.6522 23.3487 11.1417 22.8076 11.1575 22.1635C11.1734 21.5194 11.7102 21.0176 12.3513 20.953C13.7525 20.8117 15.109 20.3546 16.3161 19.6098C17.8555 18.6601 19.0858 17.2834 19.8573 15.6474C20.6287 14.0113 20.9082 12.1863 20.6616 10.3944C20.415 8.60241 19.653 6.92073 18.4684 5.55384C17.2837 4.18695 15.7273 3.19375 13.9886 2.69506C12.2499 2.19636 10.4037 2.21365 8.6746 2.74483C6.94552 3.276 5.40804 4.29817 4.24916 5.68701C3.34042 6.77608 2.69518 8.05382 2.35629 9.42078C2.20125 10.0462 1.62827 10.5063 0.98842 10.4304Z" fill="url(#paint0_linear_3015_642)"/>
<path d="M5.673 10.414C5.06727 10.2818 4.67505 9.67862 4.90222 9.10176C5.24964 8.21956 5.77418 7.41336 6.44767 6.73496C7.38602 5.78976 8.57454 5.13188 9.87372 4.83854C11.1729 4.54521 12.5288 4.62861 13.7822 5.07894C15.0357 5.52928 16.1346 6.32785 16.95 7.38092C17.7655 8.43399 18.2636 9.69784 18.3858 11.0241C18.5081 12.3503 18.2495 13.684 17.6403 14.8684C17.0311 16.0527 16.0967 17.0388 14.9467 17.7107C14.1213 18.1929 13.2095 18.499 12.2684 18.6145C11.653 18.6901 11.1672 18.1593 11.1909 17.5398C11.2146 16.9203 11.7423 16.4506 12.3502 16.3287C12.8631 16.2259 13.358 16.0386 13.8141 15.7722C14.5952 15.3158 15.23 14.646 15.6437 13.8415C16.0575 13.0369 16.2332 12.1311 16.1502 11.2302C16.0671 10.3293 15.7288 9.47082 15.1749 8.7555C14.621 8.04019 13.8745 7.49774 13.0231 7.19184C12.1717 6.88595 11.2507 6.8293 10.3682 7.02855C9.4857 7.2278 8.67837 7.67468 8.04098 8.31672C7.66883 8.69159 7.36364 9.1239 7.13569 9.59472C6.86553 10.1527 6.27873 10.5461 5.673 10.414Z" fill="url(#paint1_linear_3015_642)"/>
<path d="M11.4154 26C10.8631 26 10.4154 25.5523 10.4154 25L10.4154 11.6667C10.4154 11.1144 10.8631 10.6667 11.4154 10.6667C11.9677 10.6667 12.4154 11.1144 12.4154 11.6667L12.4154 25C12.4154 25.5523 11.9677 26 11.4154 26Z" fill="#58B182"/>
<path d="M14.4154 11.6667C14.4154 13.3235 13.0722 14.6667 11.4154 14.6667C9.75853 14.6667 8.41539 13.3235 8.41539 11.6667C8.41539 10.0098 9.75853 8.66667 11.4154 8.66667C13.0722 8.66667 14.4154 10.0098 14.4154 11.6667Z" fill="#58B182"/>
<defs>
<linearGradient id="paint0_linear_3015_642" x1="-0.659488" y1="8.91429" x2="15.5909" y2="29.7464" gradientUnits="userSpaceOnUse">
<stop offset="0.0102014" stop-color="#6AB990" stop-opacity="0.2"/>
<stop offset="1" stop-color="#6AB990"/>
</linearGradient>
<linearGradient id="paint1_linear_3015_642" x1="-0.659488" y1="8.91429" x2="18.2239" y2="26.3026" gradientUnits="userSpaceOnUse">
<stop offset="0.0102014" stop-color="#6AB990" stop-opacity="0.2"/>
<stop offset="1" stop-color="#6AB990"/>
</linearGradient>
</defs>
</svg>
