<svg width="16" height="16" viewBox="0 0 16 16" fill="none" xmlns="http://www.w3.org/2000/svg">
<path d="M8.15328 3.31806C7.4825 3.30635 6.9885 2.80649 7.0002 2.15211C7.01191 1.4825 7.51177 0.988497 8.16615 1.0002C8.83693 1.01191 9.33093 1.51177 9.31923 2.16615C9.30752 2.83575 8.80766 3.32976 8.15328 3.31806Z" fill="white"/>
<path d="M9.3165 8.03696C9.29075 8.70539 8.78035 9.18301 8.12129 9.15725C7.45286 9.1315 6.97524 8.6211 7.00099 7.96321C7.02675 7.29478 7.53714 6.81716 8.19621 6.84291C8.86464 6.86867 9.34226 7.37906 9.3165 8.03696Z" fill="white"/>
<path d="M8.15328 14.9998C7.4825 14.9881 6.9885 14.4883 7.0002 13.8339C7.01191 13.1643 7.51177 12.6703 8.16615 12.682C8.83693 12.6937 9.33093 13.1935 9.31923 13.8479C9.30752 14.5175 8.80766 15.0115 8.15328 14.9998Z" fill="white"/>
</svg>
