<svg width="24" height="24" viewBox="0 0 24 24" fill="none" xmlns="http://www.w3.org/2000/svg">
<g clip-path="url(#clip0_2958_4)">
<path d="M12.5002 22.5C11.6724 22.5 11.0002 21.8259 11.0002 20.9986H9.50024C9.50024 22.6537 10.8465 24 12.5002 24C14.154 24 15.5002 22.6537 15.5002 20.9986H14.0002C14.0002 21.8259 13.3281 22.5 12.5002 22.5ZM22.3149 15.6942C21.0043 14.4464 20.0021 13.1405 20.0021 8.71406C20.0021 4.98328 17.0307 1.94062 13.2502 1.57266V0.75C13.2502 0.335625 12.9146 0 12.5002 0C12.0859 0 11.7502 0.335625 11.7502 0.75V1.57313C7.96976 1.94109 4.99835 4.98328 4.99835 8.71406C4.99835 13.14 3.9957 14.4464 2.68507 15.6942C2.03022 16.3177 1.82351 17.2603 2.15772 18.0956C2.49898 18.9487 3.32023 19.5 4.25023 19.5H20.7503C21.6803 19.5 22.5015 18.9483 22.8428 18.0952C23.177 17.2598 22.9698 16.3177 22.3149 15.6942ZM20.7503 18H4.25023C3.5832 18 3.24991 17.228 3.7196 16.7808C5.35367 15.225 6.49836 13.4836 6.49836 8.71453C6.49836 5.55609 9.18289 3 12.5002 3C15.8171 3 18.5021 5.55562 18.5021 8.71406C18.5021 13.4648 19.637 15.2156 21.2809 16.7803C21.7524 17.2298 21.4145 18 20.7503 18Z" fill="white"/>
</g>
<g clip-path="url(#clip1_2958_4)">
<rect x="10" width="14" height="14" rx="7" fill="#FF0000"/>
<path d="M19.5223 7.34C19.8583 7.688 20.0263 8.132 20.0263 8.684C20.0263 9.152 19.9063 9.572 19.6543 9.932C19.4023 10.292 19.0423 10.58 18.5743 10.784C18.1183 10.976 17.5783 11.084 16.9663 11.084C16.0423 11.084 15.2983 10.844 14.7463 10.364C14.1943 9.884 13.9183 9.236 13.9183 8.42H14.9503C14.9623 8.96 15.1543 9.392 15.5383 9.704C15.9223 10.016 16.4143 10.172 17.0263 10.172C17.6023 10.172 18.0703 10.028 18.4423 9.74C18.8143 9.452 18.9943 9.08 18.9943 8.6C18.9943 8.156 18.8143 7.808 18.4543 7.556C18.0943 7.292 17.5903 7.172 16.9303 7.172H16.2103V6.296H16.8703C17.4943 6.296 17.9623 6.152 18.2863 5.888C18.6223 5.612 18.7783 5.252 18.7783 4.808C18.7783 4.388 18.6223 4.052 18.2863 3.8C17.9503 3.56 17.5303 3.428 17.0023 3.428C16.4623 3.428 16.0183 3.572 15.6823 3.848C15.3463 4.124 15.1663 4.496 15.1543 4.964H14.1463C14.1583 4.208 14.4223 3.608 14.9263 3.176C15.4423 2.744 16.1263 2.528 16.9783 2.528C17.5543 2.528 18.0583 2.624 18.4903 2.804C18.9223 2.996 19.2463 3.248 19.4743 3.584C19.7023 3.92 19.8223 4.316 19.8223 4.748C19.8223 5.264 19.6783 5.684 19.4023 6.02C19.1143 6.356 18.7423 6.572 18.2623 6.668C18.7543 6.764 19.1743 6.992 19.5223 7.34Z" fill="white"/>
</g>
<defs>
<clipPath id="clip0_2958_4">
<rect width="21" height="24" fill="white" transform="translate(2)"/>
</clipPath>
<clipPath id="clip1_2958_4">
<rect x="10" width="14" height="14" rx="7" fill="white"/>
</clipPath>
</defs>
</svg>
