<svg width="40" height="41" viewBox="0 0 40 41" fill="none" xmlns="http://www.w3.org/2000/svg">
<path d="M36.005 8.3575C36.005 9.65951 34.9495 10.715 33.6475 10.715L5.3575 10.715C4.05549 10.715 3 9.65951 3 8.3575C3 7.05549 4.05549 6 5.3575 6L33.6475 6C34.9495 6 36.005 7.05549 36.005 8.3575Z" fill="url(#paint0_linear_219_9369)"/>
<path d="M31.29 20.145C31.29 21.447 30.2345 22.5025 28.9325 22.5025L10.0725 22.5025C8.77049 22.5025 7.715 21.447 7.715 20.145C7.715 18.843 8.77049 17.7875 10.0725 17.7875L28.9325 17.7875C30.2345 17.7875 31.29 18.843 31.29 20.145Z" fill="url(#paint1_linear_219_9369)"/>
<path d="M25.3963 31.9325C25.3963 33.2345 24.3408 34.29 23.0388 34.29H15.9663C14.6642 34.29 13.6088 33.2345 13.6088 31.9325C13.6088 30.6305 14.6642 29.575 15.9663 29.575H23.0388C24.3408 29.575 25.3963 30.6305 25.3963 31.9325Z" fill="url(#paint2_linear_219_9369)"/>
<defs>
<linearGradient id="paint0_linear_219_9369" x1="-15.0027" y1="7.63211" x2="29.8152" y2="41.0962" gradientUnits="userSpaceOnUse">
<stop stop-color="#6AB990"/>
<stop offset="0.989799" stop-color="#6AB990" stop-opacity="0.2"/>
</linearGradient>
<linearGradient id="paint1_linear_219_9369" x1="-15.0027" y1="7.63211" x2="29.8152" y2="41.0962" gradientUnits="userSpaceOnUse">
<stop stop-color="#6AB990"/>
<stop offset="0.989799" stop-color="#6AB990" stop-opacity="0.2"/>
</linearGradient>
<linearGradient id="paint2_linear_219_9369" x1="-15.0027" y1="7.63211" x2="29.8152" y2="41.0962" gradientUnits="userSpaceOnUse">
<stop stop-color="#6AB990"/>
<stop offset="0.989799" stop-color="#6AB990" stop-opacity="0.2"/>
</linearGradient>
</defs>
</svg>
