<svg width="16" height="16" viewBox="0 0 16 16" fill="none" xmlns="http://www.w3.org/2000/svg">
<g clip-path="url(#clip0_46_459)">
<path d="M8.0712 14.8176C6.74982 14.8176 5.42845 14.8176 4.10787 14.8176C3.49524 14.8176 3.23737 14.5237 3.29102 13.9135C3.39033 12.7939 3.91327 11.929 4.85265 11.3244C5.39882 10.9728 6.01225 10.8255 6.65933 10.8231C7.60671 10.8199 8.5541 10.8167 9.50148 10.8231C11.1952 10.8359 12.5134 11.9402 12.8257 13.6044C12.8562 13.7677 12.8682 13.9359 12.8706 14.1025C12.8778 14.5477 12.5847 14.8168 12.0938 14.8168C10.7524 14.8184 9.41099 14.8168 8.07039 14.8168L8.0712 14.8176ZM12.089 14.0176C12.0625 13.8614 12.0489 13.7221 12.0153 13.5867C11.7254 12.4143 10.7476 11.6295 9.53752 11.6151C8.56371 11.6039 7.58989 11.6039 6.61608 11.6167C6.09474 11.6231 5.60303 11.7512 5.16657 12.0603C4.49227 12.5384 4.14471 13.1919 4.06863 14.0176H12.089Z" fill="black"/>
<path d="M8.10563 5.21643C9.46144 5.26288 10.4921 6.35121 10.4657 7.64696C10.4369 9.0372 9.30127 10.0302 8.03836 10.0038C6.6353 9.97498 5.6679 8.81778 5.68712 7.5893C5.70874 6.21347 6.83231 5.21563 8.10563 5.21723V5.21643ZM6.47353 7.60852C6.47353 8.48063 7.2111 9.22059 8.0784 9.21819C8.9417 9.21579 9.67526 8.48543 9.67847 7.62534C9.68087 6.74602 8.96172 6.01406 8.08561 6.00525C7.22071 5.99724 6.47433 6.73961 6.47353 7.60852Z" fill="black"/>
<path d="M5.6663 4.00958C5.66309 5.0891 4.75415 5.99884 3.67382 6.00285C2.5911 6.00685 1.66373 5.07468 1.67574 3.99596C1.68776 2.91644 2.60871 2.00269 3.67783 2.0115C4.75735 2.02031 5.6695 2.93646 5.6663 4.01038V4.00958ZM3.68824 2.80112C3.03716 2.7867 2.47337 3.33848 2.46537 3.99916C2.45736 4.64704 2.99632 5.19801 3.653 5.21243C4.30648 5.22684 4.86706 4.67827 4.87507 4.01438C4.88388 3.36811 4.34332 2.81553 3.68824 2.80112Z" fill="black"/>
<path d="M12.8762 6.00205C11.7991 5.99564 10.8845 5.07789 10.8869 4.00477C10.8885 2.92925 11.8039 2.0131 12.8794 2.0099C13.9629 2.00669 14.8911 2.93966 14.8775 4.01758C14.8639 5.10271 13.9509 6.00845 12.8762 6.00205ZM14.0871 4.00157C14.083 3.34969 13.5369 2.80352 12.8866 2.80112C12.2275 2.79872 11.6725 3.35449 11.6765 4.01118C11.6805 4.67026 12.2435 5.22444 12.897 5.21163C13.5513 5.19881 14.0911 4.64944 14.0871 4.00157Z" fill="black"/>
<path d="M4.95035 6.83251C4.91752 7.09198 4.88628 7.33543 4.85185 7.60612C4.77897 7.60612 4.70129 7.60451 4.62361 7.60612C3.93089 7.61893 3.23577 7.59971 2.54625 7.65336C1.71098 7.71903 0.999841 8.4582 0.900537 9.28786C0.886122 9.40719 0.87411 9.52651 0.855691 9.64504C0.818052 9.89169 0.66109 10.023 0.433653 10.0038C0.217428 9.98539 0.0684715 9.83403 0.0764798 9.60099C0.0924965 9.13731 0.172581 8.68243 0.415233 8.27962C0.858094 7.54525 1.47474 7.03832 2.33803 6.87495C2.45576 6.85253 2.57588 6.83491 2.6944 6.83411C3.43998 6.83011 4.18555 6.83251 4.94955 6.83251H4.95035Z" fill="black"/>
<path d="M11.3058 7.60692C11.2721 7.33623 11.2417 7.08718 11.2105 6.83251C11.2377 6.8269 11.2633 6.8181 11.2881 6.8181C12.0682 6.82851 12.849 6.8181 13.6274 6.85734C14.6596 6.91019 15.728 7.83435 15.9634 8.8442C16.0163 9.07004 16.0483 9.30228 16.0723 9.53372C16.1011 9.8052 15.9666 9.97578 15.7256 10.0038C15.4909 10.0302 15.3195 9.88529 15.2931 9.6146C15.2515 9.18376 15.161 8.77133 14.8999 8.41576C14.4835 7.84877 13.8957 7.62373 13.2173 7.61012C12.5847 7.59731 11.9504 7.60772 11.3058 7.60772V7.60692Z" fill="black"/>
</g>
<defs>
<clipPath id="clip0_46_459">
<rect width="16" height="16" fill="white"/>
</clipPath>
</defs>
</svg>
