<svg width="24" height="24" viewBox="0 0 24 24" fill="none" xmlns="http://www.w3.org/2000/svg">
<g clip-path="url(#clip0_3015_417)">
<path d="M12.1058 22.2264C10.1238 22.2264 8.1417 22.2264 6.16083 22.2264C5.24188 22.2264 4.85508 21.7856 4.93556 20.8702C5.08451 19.1909 5.86893 17.8935 7.278 16.9866C8.09725 16.4592 9.0174 16.2382 9.98801 16.2346C11.4091 16.2298 12.8302 16.225 14.2512 16.2346C16.7919 16.2538 18.7691 17.9103 19.2376 20.4065C19.2833 20.6516 19.3013 20.9038 19.3049 21.1537C19.3157 21.8216 18.8761 22.2252 18.1397 22.2252C16.1276 22.2276 14.1155 22.2252 12.1046 22.2252L12.1058 22.2264ZM18.1325 21.0264C18.0928 20.7921 18.0724 20.5831 18.022 20.3801C17.5871 18.6215 16.1204 17.4442 14.3053 17.4226C12.8446 17.4058 11.3839 17.4058 9.92315 17.425C9.14113 17.4346 8.40357 17.6268 7.74889 18.0905C6.73743 18.8077 6.21609 19.7879 6.10197 21.0264H18.1325Z" fill="#45A874"/>
<path d="M12.1575 7.82465C14.1912 7.89432 15.7372 9.52681 15.6976 11.4704C15.6543 13.5558 13.9509 15.0454 12.0566 15.0057C9.95198 14.9625 8.50087 13.2267 8.5297 11.3839C8.56213 9.3202 10.2475 7.82344 12.1575 7.82585V7.82465ZM9.70932 11.4128C9.70932 12.7209 10.8157 13.8309 12.1166 13.8273C13.4116 13.8237 14.5119 12.7281 14.5167 11.438C14.5203 10.119 13.4416 9.02109 12.1274 9.00788C10.8301 8.99586 9.71053 10.1094 9.70932 11.4128Z" fill="#45A874"/>
<path d="M8.49847 6.01436C8.49366 7.63365 7.13024 8.99827 5.50976 9.00427C3.88567 9.01028 2.49462 7.61202 2.51264 5.99394C2.53066 4.37466 3.91209 3.00403 5.51576 3.01725C7.13505 3.03046 8.50327 4.40469 8.49847 6.01556V6.01436ZM5.53138 4.20168C4.55476 4.18006 3.70909 5.00772 3.69707 5.99875C3.68506 6.97056 4.4935 7.79702 5.47852 7.81864C6.45874 7.84026 7.29962 7.01741 7.31163 6.02157C7.32485 5.05216 6.514 4.2233 5.53138 4.20168Z" fill="#45A874"/>
<path d="M19.3133 9.00307C17.6976 8.99346 16.3258 7.61683 16.3294 6.00716C16.3318 4.39388 17.7048 3.01965 19.3181 3.01484C20.9434 3.01004 22.3357 4.40949 22.3152 6.02638C22.2948 7.65407 20.9254 9.01268 19.3133 9.00307ZM21.1296 6.00235C21.1236 5.02453 20.3043 4.20528 19.3289 4.20168C18.3403 4.19807 17.5078 5.03174 17.5138 6.01677C17.5198 7.00539 18.3643 7.83666 19.3445 7.81744C20.326 7.79822 21.1356 6.97416 21.1296 6.00235Z" fill="#45A874"/>
<path d="M7.42455 10.2488C7.3753 10.638 7.32845 11.0032 7.27679 11.4092C7.16748 11.4092 7.05096 11.4068 6.93444 11.4092C5.89536 11.4284 4.85267 11.3996 3.8184 11.48C2.5655 11.5785 1.49878 12.6873 1.34983 13.9318C1.32821 14.1108 1.31019 14.2898 1.28256 14.4676C1.2261 14.8375 0.990658 15.0345 0.649503 15.0057C0.325166 14.9781 0.101731 14.751 0.113743 14.4015C0.137768 13.706 0.257894 13.0237 0.621873 12.4194C1.28616 11.3179 2.21113 10.5575 3.50607 10.3124C3.68266 10.2788 3.86284 10.2524 4.04063 10.2512C5.15899 10.2452 6.27735 10.2488 7.42335 10.2488H7.42455Z" fill="#45A874"/>
<path d="M16.9577 11.4104C16.9072 11.0044 16.8616 10.6308 16.8147 10.2488C16.8556 10.2404 16.894 10.2271 16.9312 10.2271C18.1013 10.2428 19.2725 10.2271 20.4401 10.286C21.9885 10.3653 23.591 11.7515 23.9441 13.2663C24.0234 13.6051 24.0715 13.9534 24.1075 14.3006C24.1507 14.7078 23.9489 14.9637 23.5874 15.0057C23.2354 15.0454 22.9783 14.8279 22.9387 14.4219C22.8762 13.7756 22.7405 13.157 22.3489 12.6236C21.7242 11.7732 20.8425 11.4356 19.825 11.4152C18.8761 11.396 17.9247 11.4116 16.9577 11.4116V11.4104Z" fill="#45A874"/>
</g>
<defs>
<clipPath id="clip0_3015_417">
<rect width="24" height="24" fill="white"/>
</clipPath>
</defs>
</svg>
