<svg width="24" height="24" viewBox="0 0 24 24" fill="none" xmlns="http://www.w3.org/2000/svg">
<path d="M12 2.8125C14.5348 2.8125 16.5938 4.87148 16.5938 7.40625C16.5938 9.94102 14.5348 12 12 12C9.46523 12 7.40625 9.94102 7.40625 7.40625C7.40625 4.87148 9.46523 2.8125 12 2.8125ZM17.25 15.9375C19.4197 15.9375 21.1875 17.7053 21.1875 19.875V21.1875H2.8125V19.875C2.8125 17.7053 4.58027 15.9375 6.75 15.9375C10.2363 15.9375 9.51035 16.5938 12 16.5938C14.4979 16.5938 13.7596 15.9375 17.25 15.9375ZM12 1.5C8.73926 1.5 6.09375 4.14551 6.09375 7.40625C6.09375 10.667 8.73926 13.3125 12 13.3125C15.2607 13.3125 17.9062 10.667 17.9062 7.40625C17.9062 4.14551 15.2607 1.5 12 1.5ZM17.25 14.625C13.4602 14.625 14.3379 15.2812 12 15.2812C9.67031 15.2812 10.5357 14.625 6.75 14.625C3.8502 14.625 1.5 16.9752 1.5 19.875V21.1875C1.5 21.9135 2.08652 22.5 2.8125 22.5H21.1875C21.9135 22.5 22.5 21.9135 22.5 21.1875V19.875C22.5 16.9752 20.1498 14.625 17.25 14.625Z" fill="#45A874"/>
</svg>
