<svg width="16" height="16" viewBox="0 0 16 16" fill="none" xmlns="http://www.w3.org/2000/svg">
<path d="M8 1.875C9.68984 1.875 11.0625 3.24766 11.0625 4.9375C11.0625 6.62734 9.68984 8 8 8C6.31016 8 4.9375 6.62734 4.9375 4.9375C4.9375 3.24766 6.31016 1.875 8 1.875ZM11.5 10.625C12.9465 10.625 14.125 11.8035 14.125 13.25V14.125H1.875V13.25C1.875 11.8035 3.05352 10.625 4.5 10.625C6.82422 10.625 6.34023 11.0625 8 11.0625C9.66523 11.0625 9.17305 10.625 11.5 10.625ZM8 1C5.82617 1 4.0625 2.76367 4.0625 4.9375C4.0625 7.11133 5.82617 8.875 8 8.875C10.1738 8.875 11.9375 7.11133 11.9375 4.9375C11.9375 2.76367 10.1738 1 8 1ZM11.5 9.75C8.97344 9.75 9.55859 10.1875 8 10.1875C6.44688 10.1875 7.02383 9.75 4.5 9.75C2.5668 9.75 1 11.3168 1 13.25V14.125C1 14.609 1.39102 15 1.875 15H14.125C14.609 15 15 14.609 15 14.125V13.25C15 11.3168 13.4332 9.75 11.5 9.75Z" fill="black"/>
</svg>
